<svg width="47" height="47" viewBox="0 0 47 47" fill="none" xmlns="http://www.w3.org/2000/svg">
<rect x="3.5" y="3.17944" width="40" height="40" rx="20" fill="#475467"/>
<rect x="3.5" y="3.17944" width="40" height="40" rx="20" stroke="#121212" stroke-width="6"/>
<path d="M18.5786 22.5367C18.5268 22.2029 18.5 21.8609 18.5 21.5127C18.5 17.8308 21.5044 14.8461 25.2105 14.8461C28.9166 14.8461 31.921 17.8308 31.921 21.5127C31.921 22.3445 31.7677 23.1406 31.4876 23.8748C31.4295 24.0273 31.4004 24.1036 31.3872 24.1631C31.3741 24.2221 31.369 24.2635 31.3676 24.3239C31.3662 24.3849 31.3744 24.452 31.391 24.5863L31.7264 27.3115C31.7628 27.6065 31.7809 27.754 31.7319 27.8613C31.6889 27.9552 31.6125 28.0298 31.5176 28.0707C31.4092 28.1172 31.2622 28.0957 30.9681 28.0526L28.3137 27.6635C28.1751 27.6432 28.1058 27.633 28.0427 27.6334C27.9803 27.6337 27.9371 27.6383 27.8759 27.6512C27.8142 27.6642 27.7353 27.6937 27.5775 27.7528C26.8414 28.0286 26.0437 28.1794 25.2105 28.1794C24.862 28.1794 24.5197 28.153 24.1855 28.1021M19.8596 31.5127C22.3304 31.5127 24.3333 29.4607 24.3333 26.9294C24.3333 24.3981 22.3304 22.3461 19.8596 22.3461C17.3889 22.3461 15.386 24.3981 15.386 26.9294C15.386 27.4382 15.4669 27.9277 15.6163 28.385C15.6794 28.5783 15.711 28.675 15.7214 28.741C15.7322 28.81 15.7341 28.8487 15.7301 28.9183C15.7262 28.9851 15.7095 29.0605 15.6761 29.2113L15.1667 31.5127L17.6623 31.1719C17.7985 31.1533 17.8667 31.144 17.9261 31.1444C17.9888 31.1448 18.022 31.1482 18.0834 31.1605C18.1417 31.1721 18.2285 31.2027 18.4019 31.2639C18.8588 31.4252 19.3492 31.5127 19.8596 31.5127Z" stroke="white" stroke-width="1.66667" stroke-linecap="round" stroke-linejoin="round"/>
</svg>
