<svg width="47" height="47" viewBox="0 0 47 47" fill="none" xmlns="http://www.w3.org/2000/svg">
<rect x="3.5" y="3.17944" width="40" height="40" rx="20" fill="#475467"/>
<rect x="3.5" y="3.17944" width="40" height="40" rx="20" stroke="#121212" stroke-width="6"/>
<path d="M24.3333 14.8461L16.9112 23.7526C16.6205 24.1014 16.4752 24.2758 16.473 24.4231C16.471 24.5512 16.5281 24.673 16.6277 24.7535C16.7423 24.8461 16.9693 24.8461 17.4234 24.8461H23.5L22.6667 31.5127L30.0888 22.6062C30.3795 22.2574 30.5248 22.083 30.527 21.9357C30.5289 21.8076 30.4719 21.6858 30.3723 21.6053C30.2577 21.5127 30.0307 21.5127 29.5766 21.5127H23.5L24.3333 14.8461Z" stroke="white" stroke-width="1.66667" stroke-linecap="round" stroke-linejoin="round"/>
</svg>
