<svg width="47" height="47" viewBox="0 0 47 47" fill="none" xmlns="http://www.w3.org/2000/svg">
<rect x="3.5" y="3.17944" width="40" height="40" rx="20" fill="#475467"/>
<rect x="3.5" y="3.17944" width="40" height="40" rx="20" stroke="#121212" stroke-width="6"/>
<path d="M22.6667 15.6794H20C18.5999 15.6794 17.8998 15.6794 17.365 15.9519C16.8946 16.1916 16.5122 16.574 16.2725 17.0444C16 17.5792 16 18.2793 16 19.6794V26.6794C16 28.0795 16 28.7796 16.2725 29.3144C16.5122 29.7848 16.8946 30.1672 17.365 30.4069C17.8998 30.6794 18.5999 30.6794 20 30.6794H27C28.4001 30.6794 29.1002 30.6794 29.635 30.4069C30.1054 30.1672 30.4878 29.7848 30.7275 29.3144C31 28.7796 31 28.0795 31 26.6794V24.0127M23.5 19.8461H26.8333V23.1794M26.4167 16.0961V14.8461M29.6995 16.98L30.5833 16.0961M30.5919 20.2627H31.8419M16 24.302C16.5433 24.3859 17.0999 24.4294 17.6667 24.4294C21.322 24.4294 24.5544 22.6191 26.5164 19.8461" stroke="white" stroke-width="1.66667" stroke-linecap="round" stroke-linejoin="round"/>
</svg>
