<svg width="47" height="47" viewBox="0 0 47 47" fill="none" xmlns="http://www.w3.org/2000/svg">
<rect x="3.5" y="3.17944" width="40" height="40" rx="20" fill="#475467"/>
<rect x="3.5" y="3.17944" width="40" height="40" rx="20" stroke="#121212" stroke-width="6"/>
<path d="M20.9997 24.8461C20.9997 24.8461 22.0934 26.0961 23.9164 26.0961C25.7393 26.0961 26.833 24.8461 26.833 24.8461M26.208 20.6794H26.2164M21.6247 20.6794H21.633M23.9164 29.8461C27.8284 29.8461 30.9997 26.6748 30.9997 22.7628C30.9997 18.8508 27.8284 15.6794 23.9164 15.6794C20.0043 15.6794 16.833 18.8508 16.833 22.7628C16.833 23.5544 16.9629 24.3158 17.2025 25.0266C17.2927 25.2941 17.3378 25.4279 17.3459 25.5306C17.3539 25.6321 17.3478 25.7033 17.3227 25.8019C17.2973 25.9018 17.2412 26.0057 17.1289 26.2135L15.7659 28.7364C15.5715 29.0963 15.4743 29.2762 15.496 29.4151C15.515 29.536 15.5862 29.6425 15.6907 29.7063C15.8107 29.7795 16.0141 29.7585 16.421 29.7164L20.6885 29.2753C20.8177 29.2619 20.8824 29.2552 20.9412 29.2575C20.9992 29.2597 21.0401 29.2652 21.0966 29.2782C21.154 29.2914 21.2262 29.3192 21.3707 29.3749C22.1607 29.6793 23.019 29.8461 23.9164 29.8461ZM26.6247 20.6794C26.6247 20.9096 26.4382 21.0961 26.208 21.0961C25.9779 21.0961 25.7914 20.9096 25.7914 20.6794C25.7914 20.4493 25.9779 20.2628 26.208 20.2628C26.4382 20.2628 26.6247 20.4493 26.6247 20.6794ZM22.0414 20.6794C22.0414 20.9096 21.8548 21.0961 21.6247 21.0961C21.3946 21.0961 21.208 20.9096 21.208 20.6794C21.208 20.4493 21.3946 20.2628 21.6247 20.2628C21.8548 20.2628 22.0414 20.4493 22.0414 20.6794Z" stroke="white" stroke-width="1.66667" stroke-linecap="round" stroke-linejoin="round"/>
</svg>
