<svg width="47" height="47" viewBox="0 0 47 47" fill="none" xmlns="http://www.w3.org/2000/svg">
<rect x="3.5" y="3.17944" width="40" height="40" rx="20" fill="#475467"/>
<rect x="3.5" y="3.17944" width="40" height="40" rx="20" stroke="#121212" stroke-width="6"/>
<path d="M30.9997 22.7628C30.9997 26.6748 27.8284 29.8461 23.9164 29.8461C23.019 29.8461 22.1607 29.6793 21.3707 29.3749C21.2262 29.3192 21.154 29.2914 21.0966 29.2782C21.0401 29.2652 20.9992 29.2597 20.9412 29.2575C20.8824 29.2552 20.8177 29.2619 20.6885 29.2753L16.421 29.7164C16.0141 29.7585 15.8107 29.7795 15.6907 29.7063C15.5862 29.6425 15.515 29.536 15.496 29.4151C15.4743 29.2762 15.5715 29.0963 15.7659 28.7364L17.1289 26.2135C17.2412 26.0057 17.2973 25.9018 17.3227 25.8019C17.3478 25.7033 17.3539 25.6321 17.3459 25.5306C17.3378 25.4279 17.2927 25.2941 17.2025 25.0266C16.9629 24.3158 16.833 23.5544 16.833 22.7628C16.833 18.8508 20.0043 15.6794 23.9164 15.6794C27.8284 15.6794 30.9997 18.8508 30.9997 22.7628Z" stroke="white" stroke-width="1.66667" stroke-linecap="round" stroke-linejoin="round"/>
<path fill-rule="evenodd" clip-rule="evenodd" d="M23.9138 20.6372C23.164 19.7714 21.9138 19.5386 20.9744 20.3313C20.035 21.124 19.9027 22.4494 20.6404 23.387C21.0975 23.9679 22.2446 25.0287 23.0513 25.7519C23.3477 26.0175 23.4958 26.1504 23.6736 26.2039C23.8262 26.2498 24.0014 26.2498 24.154 26.2039C24.3318 26.1504 24.4799 26.0175 24.7763 25.7519C25.583 25.0287 26.7301 23.9679 27.1872 23.387C27.9249 22.4494 27.8088 21.1157 26.8532 20.3313C25.8977 19.5469 24.6636 19.7714 23.9138 20.6372Z" stroke="white" stroke-width="1.66667" stroke-linecap="round" stroke-linejoin="round"/>
</svg>
