<svg width="77" height="28" viewBox="0 0 77 28" fill="none" xmlns="http://www.w3.org/2000/svg">
<path d="M28 14C28 21.732 21.732 28 14 28C6.26801 28 0 21.732 0 14C0 6.26801 6.26801 0 14 0C21.732 0 28 6.26801 28 14Z" fill="#5941A9"/>
<path fill-rule="evenodd" clip-rule="evenodd" d="M13.4045 7.70229C14.0379 7.3989 14.7481 7.229 15.496 7.229C18.1738 7.229 20.3448 9.40126 20.3448 12.0805C20.3448 14.1786 19.0133 15.9652 17.1496 16.6421C16.6334 16.8282 16.0769 16.9306 15.496 16.9306C14.7481 16.9306 14.0379 16.7608 13.4045 16.4574L13.4045 21.2104H10.6487L10.6487 14.0933L7.61899 11.0316L9.58305 9.04682L10.6665 10.1417L10.94 10.4181C11.3763 9.22298 12.2683 8.24717 13.4045 7.70229ZM14.2616 13.7525C14.6066 14.0087 15.0338 14.1597 15.496 14.1597C16.6429 14.1597 17.5741 13.228 17.5741 12.0805C17.5741 10.9317 16.6429 10.0013 15.496 10.0013C14.3479 10.0013 13.418 10.9317 13.418 12.0805C13.418 12.543 13.569 12.9691 13.8237 13.3143C13.9449 13.4788 14.0891 13.6244 14.2522 13.7458H14.2535L14.2589 13.7498L14.2616 13.7525Z" fill="white"/>
<g clip-path="url(#clip0_431_5833)">
<path d="M40.5136 14.0467C40.5136 15.2427 39.5573 16.2124 38.3778 16.2124C37.901 16.2124 37.4602 16.0536 37.104 15.7866L37.0985 15.7824C36.9349 15.6573 36.788 15.5097 36.6647 15.3425L36.6605 15.3369C36.3972 14.9771 36.2405 14.5302 36.2405 14.0467C36.2405 12.8493 37.1969 11.8796 38.3778 11.8796C39.5573 11.881 40.5136 12.8508 40.5136 14.0467Z" stroke="#5941A9" stroke-width="0.35" stroke-miterlimit="10"/>
<path d="M40.5136 14.0467C40.5136 15.2427 39.5573 16.2124 38.3778 16.2124C37.901 16.2124 37.4602 16.0536 37.104 15.7866L37.0985 15.7824C36.9349 15.6573 36.788 15.5097 36.6647 15.3425L36.6605 15.3369C36.3972 14.9771 36.2405 14.5302 36.2405 14.0467C36.2405 12.8493 37.1969 11.8796 38.3778 11.8796C39.5573 11.881 40.5136 12.8508 40.5136 14.0467Z" stroke="#5941A9" stroke-width="0.35" stroke-miterlimit="10"/>
<path d="M37.0987 15.7834C36.9352 15.6583 36.7883 15.5107 36.6649 15.3435L37.0987 15.7834Z" stroke="#5941A9" stroke-width="0.35" stroke-miterlimit="10"/>
<path d="M38.3768 8.99219C37.6076 8.99219 36.8772 9.16926 36.2257 9.48547C35.0546 10.0546 34.1356 11.075 33.6879 12.3243C33.4967 12.8626 33.3913 13.443 33.3913 14.0487V23.5645H36.2257V18.6106C36.8772 18.9268 37.6076 19.1038 38.3768 19.1038C38.9742 19.1038 39.5467 18.997 40.0775 18.8031C41.9944 18.0976 43.3638 16.2355 43.3638 14.0487C43.3638 11.2548 41.1309 8.99219 38.3768 8.99219ZM38.3782 16.2144C37.9014 16.2144 37.4607 16.0556 37.1045 15.7886L37.0989 15.7844C36.9354 15.6593 36.7885 15.5117 36.6651 15.3445L36.661 15.3389C36.3976 14.9791 36.241 14.5322 36.241 14.0487C36.241 12.8513 37.1973 11.8816 38.3782 11.8816C39.5577 11.8816 40.5141 12.8513 40.5141 14.0487C40.5141 15.2433 39.5577 16.2144 38.3782 16.2144Z" fill="#5941A9"/>
<path d="M51.3029 9.47985C50.6556 9.16645 49.9307 8.99219 49.1656 8.99219C48.3964 8.99219 47.6659 9.16926 47.0145 9.48547C45.8433 10.0546 44.9244 11.075 44.4767 12.3243C44.2854 12.8626 44.1801 13.443 44.1801 14.0487C44.1801 16.0598 45.3374 17.7969 47.0145 18.6106C47.6659 18.9268 48.3964 19.1038 49.1656 19.1038C49.763 19.1038 50.3354 18.997 50.8663 18.8031C51.0159 18.7483 51.1615 18.6865 51.3029 18.6162C52.8746 17.8601 53.9917 16.2973 54.1373 14.4549V13.6454C53.9931 11.8001 52.8746 10.2345 51.3029 9.47985ZM49.1656 16.2144C47.9847 16.2144 47.0284 15.2447 47.0284 14.0487C47.0284 12.8513 47.9847 11.8816 49.1656 11.8816C50.3465 11.8816 51.3029 12.8513 51.3029 14.0487C51.3029 15.2433 50.3465 16.2144 49.1656 16.2144Z" fill="#5941A9"/>
<path d="M51.3027 14.0467C51.3027 15.2427 50.3463 16.2124 49.1654 16.2124C47.9846 16.2124 47.0282 15.2427 47.0282 14.0467C47.0282 12.8493 47.9846 11.8796 49.1654 11.8796C50.3463 11.8796 51.3027 12.8508 51.3027 14.0467Z" stroke="#5941A9" stroke-width="0.35" stroke-miterlimit="10"/>
<path d="M54.137 14.4531V19.8188H51.3026V18.6144C52.8743 17.8583 53.9915 16.2956 54.137 14.4531Z" fill="#5941A9"/>
<path d="M65.1738 8.99316L62.2119 15.7207L60.6595 19.2454L58.7579 23.5641H55.6546L59.1072 15.7207L60.6595 12.1946L62.0691 8.99316H65.1738Z" fill="#5941A9" stroke="#5941A9" stroke-width="0.35" stroke-miterlimit="10"/>
<path d="M60.4142 15.647L58.8619 19.1731L57.3095 15.647L54.3476 8.9209H57.4523L58.8619 12.1223L60.4142 15.647Z" fill="#5941A9"/>
<path d="M71.3229 4.71059C70.7912 4.60958 70.2428 4.55908 69.6779 4.55908C68.847 4.55908 68.1824 4.67692 67.3183 5.1651C66.5041 5.61961 65.9391 6.68013 65.9391 8.212V8.58234L65.9392 8.71098L65.9391 10.5143V11.1916V19.0697H69.1129V11.1916H71.3229V8.58234H69.1129V8.19516C69.1129 7.92582 69.1129 7.69015 69.5117 7.38715C69.9271 7.08414 70.6915 7.10097 71.3229 7.31981H71.3395V4.71059H71.3229ZM72.7685 8.58234V19.0697H75.9091V8.58234H72.7685Z" fill="#5941A9"/>
<path d="M74.27 7.74639C75.1355 7.74639 75.8371 7.03289 75.8371 6.15274C75.8371 5.27259 75.1355 4.55908 74.27 4.55908C73.4045 4.55908 72.7029 5.27259 72.7029 6.15274C72.7029 7.03289 73.4045 7.74639 74.27 7.74639Z" fill="#5941A9"/>
</g>
<defs>
<clipPath id="clip0_431_5833">
<rect width="42.56" height="19.04" fill="white" transform="translate(33.3605 4.55981)"/>
</clipPath>
</defs>
</svg>
