<svg width="48" height="37" viewBox="0 0 48 37" fill="none" xmlns="http://www.w3.org/2000/svg">
<g clip-path="url(#clip0_431_6117)">
<mask id="mask0_431_6117" style="mask-type:luminance" maskUnits="userSpaceOnUse" x="0" y="0" width="48" height="37">
<rect y="0.179688" width="48" height="36" fill="white"/>
</mask>
<g mask="url(#mask0_431_6117)">
<path fill-rule="evenodd" clip-rule="evenodd" d="M0 0.179688V36.1797H48V0.179688H0Z" fill="#F7FCFF"/>
<mask id="mask1_431_6117" style="mask-type:luminance" maskUnits="userSpaceOnUse" x="0" y="0" width="48" height="37">
<path fill-rule="evenodd" clip-rule="evenodd" d="M0 0.179688V36.1797H48V0.179688H0Z" fill="white"/>
</mask>
<g mask="url(#mask1_431_6117)">
<path fill-rule="evenodd" clip-rule="evenodd" d="M0 0.179688V12.1797H48V0.179688H0Z" fill="#5EAA22"/>
<path fill-rule="evenodd" clip-rule="evenodd" d="M0 24.1797V36.1797H48V24.1797H0Z" fill="#E31D1C"/>
<path fill-rule="evenodd" clip-rule="evenodd" d="M6.90142 24.7676V25.7184H3.40527V24.7676H6.90142ZM0.848552 27.1559H0.538093V26.776H1.22013V28.1067H2.08984V28.117H2.93201V25.3546H2.39392V27.1662H2.31036V25.2105H1.77227V27.1559H1.75823V26.776V25.2105H1.22013V25.8252H0V28.1067H0.269046H0.848552V27.1559ZM3.09979 27.6889H3.63789V26.7462H4.23788V28.1166H5.926V25.7969H5.06031V26.7477H5.38791V27.1658H4.77598V25.7953H3.09979V27.6889ZM6.53809 27.1559H6.84855V28.1067H6.26905H6V25.8252H7.22013V25.2105H7.75823V26.776V27.1559H7.77227V25.2105H8.31036V27.1662H8.39312V25.3546H8.93122V28.117H8.08905V28.1067H7.22013V26.776H6.53809V27.1559ZM12.9006 24.7676V25.7184H9.40448V24.7676H12.9006ZM9.09943 27.6889H9.63752V26.7462H10.2375V28.1166H11.9256V25.7969H11.0599V26.7477H11.3875V27.1658H10.7756V25.7953H9.09943V27.6889ZM12.6445 27.1559H12.9549V28.1067H12.3754H12.1064V25.8252H13.3265V25.2105H13.8646V26.776V27.1559H13.8787V25.2105H14.4167V27.1662H14.4994V25.3546H15.0375V28.117H14.1953V28.1067H13.3265V26.776H12.6445V27.1559ZM19.0079 24.7676V25.7184H15.5117V24.7676H19.0079ZM15.2062 27.6889H15.7443V26.7462H16.3443V28.1166H18.0324V25.7969H17.1667V26.7477H17.4943V27.1658H16.8824V25.7953H15.2062V27.6889ZM18.6445 27.1559H18.955V28.1067H18.3755H18.1064V25.8252H19.3266V25.2105H19.8647V26.776V27.1559H19.8787V25.2105H20.4168V27.1662H20.4995V25.3546H21.0376V28.117H20.1954V28.1067H19.3266V26.776H18.6445V27.1559ZM25.0071 24.7676V25.7184H21.511V24.7676H25.0071ZM21.2061 27.6889H21.7441V26.7462H22.3441V28.1166H24.0323V25.7969H23.1666V26.7477H23.4942V27.1658H22.8822V25.7953H21.2061V27.6889ZM24.6437 27.1559H24.9542V28.1067H24.3747H24.1057V25.8252H25.3258V25.2105H25.8639V26.776V27.1559H25.8779V25.2105H26.416V27.1662H26.4994V25.3546H27.0375V28.117H26.1953V28.1067H25.3258V26.776H24.6437V27.1559ZM31.0067 24.7676V25.7184H27.5106V24.7676H31.0067ZM27.2051 27.6889H27.7432V26.7462H28.3432V28.1166H30.0313V25.7969H29.1656V26.7477H29.4932V27.1658H28.8813V25.7953H27.2051V27.6889ZM30.751 27.1559H31.0614V28.1067H30.4819H30.2129V25.8252H31.433V25.2105H31.9711V26.776V27.1559H31.9852V25.2105H32.5233V27.1662H32.6059V25.3546H33.144V28.117H32.3018V28.1067H31.433V26.776H30.751V27.1559ZM37.1135 24.7676V25.7184H33.6173V24.7676H37.1135ZM33.3123 27.6889H33.8504V26.7462H34.4504V28.1166H36.1385V25.7969H35.2728V26.7477H35.6004V27.1658H34.9885V25.7953H33.3123V27.6889ZM36.8573 27.1559H37.1678V28.1067H36.5883H36.3192V25.8252H37.5394V25.2105H38.0775V26.776V27.1559H38.0915V25.2105H38.6296V27.1662H38.7123V25.3546H39.2504V28.117H38.4082V28.1067H37.5394V26.776H36.8573V27.1559ZM43.2198 24.7676V25.7184H39.7236V24.7676H43.2198ZM39.419 27.6889H39.9571V26.7462H40.5571V28.1166H42.2452V25.7969H41.3796V26.7477H41.7072V27.1658H41.0952V25.7953H39.419V27.6889ZM42.9641 27.1559H43.2745V28.1067H42.695H42.426V25.8252H43.6461V25.2105H44.1842V26.776V27.1559H44.1983V25.2105H44.7364V27.1662H44.8195V25.3546H45.3576V28.117H44.5154V28.1067H43.6461V26.776H42.9641V27.1559ZM49.3271 24.7676V25.7184H45.8309V24.7676H49.3271ZM45.5254 27.6889H46.0635V26.7462H46.6635V28.1166H48.3516V25.7969H47.4859V26.7477H47.8135V27.1658H47.2016V25.7953H45.5254V27.6889ZM48.9637 27.1559H49.2742V28.1067H48.6947H48.4256V25.8252H49.6458V25.2105H50.1839V26.776V27.1559H50.1979V25.2105H50.736V27.1662H50.8187V25.3546H51.3568V28.117H50.5146V28.1067H49.6458V26.776H48.9637V27.1559ZM55.3262 24.7676V25.7184H51.8301V24.7676H55.3262ZM51.5254 27.6889H52.0635V26.7462H52.6635V28.1166H54.3516V25.7969H53.4859V26.7477H53.8135V27.1658H53.2016V25.7953H51.5254V27.6889ZM55.2852 27.1559H55.5956V28.1067H55.0161H54.7471V25.8252H55.9672V25.2105H56.5053V26.776V27.1559H56.5193V25.2105H57.0574V27.1662H57.1402V25.3546H57.6783V28.117H56.8361V28.1067H55.9672V26.776H55.2852V27.1559ZM61.6477 24.7676V25.7184H58.1516V24.7676H61.6477ZM57.8465 27.6889H58.3846V26.7462H58.9846V28.1166H60.6727V25.7969H59.807V26.7477H60.1346V27.1658H59.5227V25.7953H57.8465V27.6889Z" fill="#F7FCFF"/>
<path fill-rule="evenodd" clip-rule="evenodd" d="M0.727588 8.26758V9.2184H-2.76855V8.26758H0.727588ZM-5.32528 10.6559H-5.63574V10.276H-4.9537V11.6067H-4.08398V11.617H-3.24182V8.85461H-3.77991V10.6662H-3.86346V8.71051H-4.40156V10.6559H-4.4156V10.276V8.71051H-4.9537V9.32519H-6.17383V11.6067H-5.90478H-5.32528V10.6559ZM-3.07404 11.1889H-2.53594V10.2462H-1.93594V11.6166H-0.247827V9.29687H-1.11352V10.2477H-0.78592V10.6658H-1.39785V9.29535H-3.07404V11.1889ZM0.364264 10.6559H0.674724V11.6067H0.0952182H-0.173828V9.32519H1.0463V8.71051H1.5844V10.276V10.6559H1.59844V8.71051H2.13654V10.6662H2.2193V8.85461H2.75739V11.617H1.91522V11.6067H1.0463V10.276H0.364264V10.6559ZM6.72679 8.26758V9.2184H3.23065V8.26758H6.72679ZM2.9256 11.1889H3.46369V10.2462H4.06369V11.6166H5.75181V9.29687H4.88611V10.2477H5.21371V10.6658H4.60178V9.29535H2.9256V11.1889ZM6.47065 10.6559H6.78111V11.6067H6.2016H5.93256V9.32519H7.15269V8.71051H7.69078V10.276V10.6559H7.70483V8.71051H8.24292V10.6662H8.32556V8.85461H8.86365V11.617H8.02148V11.6067H7.15269V10.276H6.47065V10.6559ZM12.834 8.26758V9.2184H9.33789V8.26758H12.834ZM9.03235 11.1889H9.57044V10.2462H10.1704V11.6166H11.8586V9.29687H10.9929V10.2477H11.3205V10.6658H10.7085V9.29535H9.03235V11.1889ZM12.4707 10.6559H12.7812V11.6067H12.2017H11.9326V9.32519H13.1528V8.71051H13.6908V10.276V10.6559H13.7049V8.71051H14.243V10.6662H14.3257V8.85461H14.8638V11.617H14.0216V11.6067H13.1528V10.276H12.4707V10.6559ZM18.8333 8.26758V9.2184H15.3371V8.26758H18.8333ZM15.0322 11.1889H15.5703V10.2462H16.1703V11.6166H17.8584V9.29687H16.9927V10.2477H17.3203V10.6658H16.7084V9.29535H15.0322V11.1889ZM18.4699 10.6559H18.7804V11.6067H18.2009H17.9318V9.32519H19.152V8.71051H19.6901V10.276V10.6559H19.7041V8.71051H20.2422V10.6662H20.3256V8.85461H20.8637V11.617H20.0215V11.6067H19.152V10.276H18.4699V10.6559ZM24.8329 8.26758V9.2184H21.3368V8.26758H24.8329ZM21.0312 11.1889H21.5693V10.2462H22.1693V11.6166H23.8575V9.29687H22.9918V10.2477H23.3194V10.6658H22.7074V9.29535H21.0312V11.1889ZM24.5772 10.6559H24.8876V11.6067H24.3081H24.0391V9.32519H25.2592V8.71051H25.7973V10.276V10.6559H25.8113V8.71051H26.3494V10.6662H26.4321V8.85461H26.9702V11.617H26.128V11.6067H25.2592V10.276H24.5772V10.6559ZM30.9397 8.26758V9.2184H27.4435V8.26758H30.9397ZM27.1385 11.1889H27.6766V10.2462H28.2766V11.6166H29.9647V9.29687H29.099V10.2477H29.4266V10.6658H28.8146V9.29535H27.1385V11.1889ZM30.6835 10.6559H30.994V11.6067H30.4145H30.1454V9.32519H31.3656V8.71051H31.9036V10.276V10.6559H31.9177V8.71051H32.4558V10.6662H32.5384V8.85461H33.0765V11.617H32.2344V11.6067H31.3656V10.276H30.6835V10.6559ZM37.0459 8.26758V9.2184H33.5498V8.26758H37.0459ZM33.2452 11.1889H33.7833V10.2462H34.3833V11.6166H36.0714V9.29687H35.2057V10.2477H35.5333V10.6658H34.9214V9.29535H33.2452V11.1889ZM36.7903 10.6559H37.1007V11.6067H36.5212H36.2522V9.32519H37.4723V8.71051H38.0104V10.276V10.6559H38.0244V8.71051H38.5625V10.6662H38.6457V8.85461H39.1838V11.617H38.3416V11.6067H37.4723V10.276H36.7903V10.6559ZM43.1532 8.26758V9.2184H39.6571V8.26758H43.1532ZM39.3516 11.1889H39.8897V10.2462H40.4897V11.6166H42.1778V9.29687H41.3121V10.2477H41.6397V10.6658H41.0277V9.29535H39.3516V11.1889ZM42.7899 10.6559H43.1004V11.6067H42.5208H42.2518V9.32519H43.4719V8.71051H44.01V10.276V10.6559H44.0241V8.71051H44.5622V10.6662H44.6449V8.85461H45.183V11.617H44.3408V11.6067H43.4719V10.276H42.7899V10.6559ZM49.1524 8.26758V9.2184H45.6562V8.26758H49.1524ZM45.3516 11.1889H45.8897V10.2462H46.4897V11.6166H48.1778V9.29687H47.3121V10.2477H47.6397V10.6658H47.0278V9.29535H45.3516V11.1889ZM49.1113 10.6559H49.4218V11.6067H48.8423H48.5732V9.32519H49.7934V8.71051H50.3315V10.276V10.6559H50.3455V8.71051H50.8836V10.6662H50.9664V8.85461H51.5045V11.617H50.6623V11.6067H49.7934V10.276H49.1113V10.6559ZM55.4739 8.26758V9.2184H51.9777V8.26758H55.4739ZM51.6727 11.1889H52.2108V10.2462H52.8108V11.6166H54.4989V9.29687H53.6332V10.2477H53.9608V10.6658H53.3489V9.29535H51.6727V11.1889Z" fill="#F7FCFF"/>
<path fill-rule="evenodd" clip-rule="evenodd" d="M21.9092 12.5547C21.9092 12.5547 22.5502 12.8922 23.2062 12.8922C23.8623 12.8922 24.5224 12.5547 24.5224 12.5547V13.0047C24.5224 13.0047 23.8018 13.3422 23.1635 13.3422C22.5253 13.3422 21.9092 13.0047 21.9092 13.0047V12.5547ZM17.1846 17.8656C17.1846 15.1986 20.8476 13.4547 20.8476 13.4547C20.8476 13.4547 18.7304 14.589 18.7304 17.7538C18.7304 20.9186 19.8295 22.2891 19.8295 22.2891C19.8295 22.2891 17.1846 20.5326 17.1846 17.8656ZM29.5411 17.7184C29.5411 15.0514 25.8815 13.4547 25.8815 13.4547C25.8815 13.4547 27.9987 14.589 27.9987 17.7538C27.9987 20.9186 26.8996 22.2891 26.8996 22.2891C26.8996 22.2891 29.5411 20.3854 29.5411 17.7184ZM19.6853 18.4461C19.5457 15.7827 21.7613 13.3955 21.7613 13.3955C21.7613 13.3955 20.9549 14.4925 21.1205 17.653C21.1774 18.7383 21.6049 20.3531 22.1436 21.3049V13.5673H24.3936V21.3711C24.9327 20.482 25.348 18.9664 25.4057 17.8656C25.5713 14.7051 24.8036 13.3955 24.8036 13.3955C24.8036 13.3955 27.0192 15.7827 26.8796 18.4461C26.7965 20.0323 25.576 21.7098 24.6023 22.8073C25.0754 22.9128 25.7096 23.0414 26.5813 23.2135C26.5999 23.3099 26.4056 23.3055 26.0197 23.2966C25.5935 23.2868 24.9336 23.2716 24.0684 23.381C23.6707 23.7886 23.3938 24.0303 23.3938 24.0303C23.3938 24.0303 23.35 23.9711 23.2824 23.8894C23.2148 23.9711 23.1711 24.0303 23.1711 24.0303C23.1711 24.0303 22.8942 23.7886 22.4965 23.381C21.6313 23.2716 20.9714 23.2868 20.5452 23.2966C20.1593 23.3055 19.965 23.3099 19.9836 23.2135C20.8553 23.0414 21.4895 22.9128 21.9626 22.8073C20.9889 21.7098 19.7684 20.0323 19.6853 18.4461Z" fill="#E31D1C"/>
</g>
</g>
</g>
<defs>
<clipPath id="clip0_431_6117">
<rect y="0.179688" width="48" height="36" rx="6" fill="white"/>
</clipPath>
</defs>
</svg>
