<svg width="48" height="37" viewBox="0 0 48 37" fill="none" xmlns="http://www.w3.org/2000/svg">
<g clip-path="url(#clip0_431_6075)">
<mask id="mask0_431_6075" style="mask-type:luminance" maskUnits="userSpaceOnUse" x="0" y="0" width="48" height="37">
<rect y="0.179688" width="48" height="36" fill="white"/>
</mask>
<g mask="url(#mask0_431_6075)">
<path fill-rule="evenodd" clip-rule="evenodd" d="M0 0.179688V36.1797H48V0.179688H0Z" fill="#BF2714"/>
<mask id="mask1_431_6075" style="mask-type:luminance" maskUnits="userSpaceOnUse" x="0" y="0" width="48" height="37">
<path fill-rule="evenodd" clip-rule="evenodd" d="M0 0.179688V36.1797H48V0.179688H0Z" fill="white"/>
</mask>
<g mask="url(#mask1_431_6075)">
<path fill-rule="evenodd" clip-rule="evenodd" d="M0 -2.82031V18.1797H48V-2.82031H0Z" fill="#3D58DB"/>
</g>
<path fill-rule="evenodd" clip-rule="evenodd" d="M0 0.179688V36.1797L27 18.1797L0 0.179688Z" fill="#F7FCFF"/>
<mask id="mask2_431_6075" style="mask-type:luminance" maskUnits="userSpaceOnUse" x="0" y="0" width="27" height="37">
<path fill-rule="evenodd" clip-rule="evenodd" d="M0 0.179688V36.1797L27 18.1797L0 0.179688Z" fill="white"/>
</mask>
<g mask="url(#mask2_431_6075)">
<path fill-rule="evenodd" clip-rule="evenodd" d="M20.4075 16.56L22.3214 17.298L23.46 15.958L23.4902 17.7501L25.2516 18.3231L23.3976 18.9524L23.5198 20.5992L22.2987 19.3377L20.3792 19.7028L21.5125 18.2498L20.4075 16.56Z" fill="#FECA00"/>
<path fill-rule="evenodd" clip-rule="evenodd" d="M2.40762 25.56L4.16678 26.3377L5.46011 24.958L5.33564 26.7899L7.2517 27.3231L5.24303 27.9921L5.51988 29.5992L4.12134 28.4508L2.37933 28.7028L3.3579 27.2895L2.40762 25.56Z" fill="#FECA00"/>
<path fill-rule="evenodd" clip-rule="evenodd" d="M2.40762 7.55995L4.35426 8.27728L5.46011 6.958L5.52312 8.72943L7.2517 9.32305L5.43051 9.93166L5.51988 11.5992L4.30882 10.3904L2.37933 10.7028L3.54538 9.2291L2.40762 7.55995Z" fill="#FECA00"/>
<path fill-rule="evenodd" clip-rule="evenodd" d="M12.1826 21.979C14.2537 21.979 15.9326 20.3001 15.9326 18.229C15.9326 16.1579 14.2537 14.479 12.1826 14.479C10.1115 14.479 8.43262 16.1579 8.43262 18.229C8.43262 20.3001 10.1115 21.979 12.1826 21.979Z" fill="#FECA00"/>
<path fill-rule="evenodd" clip-rule="evenodd" d="M11.7386 12.539L11.9401 14.948C11.9594 15.0943 12.0719 15.2108 12.2174 15.2352C12.4003 15.2658 12.5733 15.1424 12.6039 14.9596L12.8698 12.5588C12.8745 12.5308 12.8771 12.5026 12.8776 12.4743C12.8831 12.1585 12.6315 11.8979 12.3157 11.8924C12.2874 11.8919 12.2591 11.8935 12.231 11.8972C11.9178 11.9385 11.6973 12.2258 11.7386 12.539ZM11.1119 13.7033L11.4233 14.7513C11.4522 14.8486 11.5494 14.9088 11.6592 14.8894C11.7493 14.8681 11.8051 14.7779 11.7838 14.6878L11.5352 13.6361C11.5067 13.5151 11.3895 13.4368 11.2668 13.4567C11.2586 13.458 11.2505 13.4598 11.2425 13.4622C11.1399 13.4927 11.0814 13.6007 11.1119 13.7033ZM12.7961 14.7949C12.7717 14.8842 12.8243 14.9763 12.9233 15.0031C13.0227 15.0239 13.1219 14.9671 13.1541 14.8709L13.5019 13.8345C13.536 13.733 13.4813 13.623 13.3798 13.5889C13.3719 13.5863 13.3639 13.5842 13.3557 13.5826C13.2338 13.5584 13.114 13.6326 13.0812 13.7525L12.7961 14.7949ZM15.911 13.7418L14.2345 15.5931C14.1447 15.7102 14.1418 15.8722 14.2275 15.9923C14.3351 16.1432 14.5447 16.1783 14.6956 16.0707L16.697 14.5557C16.72 14.5392 16.7418 14.5211 16.7622 14.5014C16.9894 14.282 16.9957 13.9199 16.7763 13.6927C16.7566 13.6723 16.7355 13.6534 16.713 13.6362C16.4624 13.4439 16.1033 13.4912 15.911 13.7418ZM15.4019 17.6717L17.9053 17.4779C18.2185 17.4367 18.5059 17.6571 18.5471 17.9703C18.5508 17.9984 18.5524 18.0267 18.5519 18.055C18.5464 18.3708 18.2859 18.6224 17.97 18.6169C17.9417 18.6164 17.9135 18.6138 17.8856 18.6091L15.3903 18.3354C15.2075 18.3048 15.0841 18.1318 15.1147 17.949C15.1391 17.8035 15.2556 17.6909 15.4019 17.6717ZM16.7007 21.6588L14.7565 19.9662C14.6394 19.8764 14.4774 19.8736 14.3573 19.9593C14.2064 20.0669 14.1713 20.2765 14.2789 20.4274L15.8868 22.4448C15.9032 22.4678 15.9214 22.4896 15.941 22.51C16.1605 22.7372 16.5226 22.7435 16.7498 22.5241C16.7702 22.5044 16.7891 22.4833 16.8063 22.4608C16.9986 22.2102 16.9513 21.8511 16.7007 21.6588ZM12.6784 21.1329L12.8268 23.6604C12.8681 23.9736 12.6476 24.2609 12.3344 24.3022C12.3064 24.3059 12.2781 24.3075 12.2498 24.307C11.9339 24.3015 11.6823 24.041 11.6879 23.7251C11.6884 23.6968 11.6909 23.6686 11.6956 23.6407L12.0147 21.1213C12.0453 20.9385 12.2183 20.8151 12.4011 20.8457C12.5466 20.87 12.6591 20.9866 12.6784 21.1329ZM8.73155 22.4983L10.3835 20.4879C10.4733 20.3708 10.4761 20.2088 10.3905 20.0887C10.2828 19.9378 10.0732 19.9027 9.92234 20.0103L7.94562 21.6844C7.92257 21.7009 7.90078 21.719 7.88042 21.7386C7.65318 21.9581 7.64686 22.3202 7.8663 22.5474C7.88596 22.5678 7.90711 22.5867 7.92957 22.6039C8.1802 22.7962 8.53926 22.7489 8.73155 22.4983ZM9.217 18.4094L6.69819 18.617C6.385 18.6582 6.09766 18.4378 6.05641 18.1246C6.05272 18.0965 6.05111 18.0682 6.0516 18.0399C6.05712 17.724 6.31763 17.4725 6.63348 17.478C6.66179 17.4785 6.69002 17.4811 6.71794 17.4857L9.22859 17.7456C9.4114 17.7762 9.53479 17.9493 9.50419 18.1321C9.47983 18.2776 9.36328 18.3901 9.217 18.4094ZM7.72513 14.4628L9.86148 16.1147C9.97854 16.2045 10.1405 16.2074 10.2607 16.1217C10.4116 16.014 10.4466 15.8045 10.339 15.6536L8.53899 13.6768C8.52255 13.6538 8.50443 13.632 8.48476 13.6116C8.26532 13.3844 7.90322 13.3781 7.67598 13.5975C7.65561 13.6172 7.63674 13.6383 7.61951 13.6608C7.42721 13.9114 7.4745 14.2705 7.72513 14.4628ZM14.0087 15.0882L14.5295 14.1269C14.5805 14.0328 14.6982 13.9978 14.7924 14.0488C14.7997 14.0528 14.8067 14.0572 14.8134 14.0621C14.9142 14.1348 14.9417 14.273 14.8764 14.3787L14.3085 15.2982C14.2598 15.3769 14.1566 15.4013 14.0778 15.3527C13.9864 15.2887 13.9603 15.1774 14.0087 15.0882ZM16.6461 16.843L15.5981 17.1544C15.5008 17.1833 15.4406 17.2805 15.46 17.3903C15.4812 17.4804 15.5715 17.5361 15.6616 17.5149L16.7133 17.2663C16.8343 17.2377 16.9126 17.1206 16.8927 16.9979C16.8914 16.9897 16.8895 16.9816 16.8872 16.9736C16.8567 16.871 16.7487 16.8125 16.6461 16.843ZM15.2619 19.7398L16.2231 20.2606C16.3173 20.3116 16.3523 20.4293 16.3012 20.5235C16.2973 20.5308 16.2929 20.5378 16.288 20.5445C16.2153 20.6453 16.0771 20.6728 15.9713 20.6075L15.0519 20.0396C14.9732 19.9909 14.9488 19.8877 14.9974 19.8089C15.0614 19.7175 15.1727 19.6914 15.2619 19.7398ZM13.5062 22.3776L13.1947 21.3297C13.1658 21.2324 13.0687 21.1722 12.9588 21.1915C12.8688 21.2128 12.813 21.3031 12.8343 21.3932L13.0828 22.4449C13.1114 22.5658 13.2286 22.6442 13.3513 22.6243C13.3595 22.623 13.3676 22.6211 13.3755 22.6188C13.4782 22.5882 13.5367 22.4803 13.5062 22.3776ZM10.6095 20.9928L10.0887 21.954C10.0377 22.0482 9.91996 22.0832 9.8258 22.0321C9.8185 22.0282 9.81146 22.0238 9.80473 22.0189C9.70393 21.9462 9.67645 21.808 9.74177 21.7022L10.3097 20.7828C10.3583 20.7041 10.4616 20.6797 10.5403 20.7283C10.6317 20.7923 10.6578 20.9036 10.6095 20.9928ZM7.97212 19.238L9.02007 18.9266C9.11735 18.8977 9.17759 18.8005 9.15821 18.6906C9.13693 18.6006 9.04666 18.5448 8.9566 18.5661L7.90487 18.8146C7.78391 18.8432 7.7056 18.9604 7.72546 19.0831C7.72678 19.0913 7.72863 19.0994 7.731 19.1073C7.76151 19.21 7.86946 19.2685 7.97212 19.238ZM9.35627 16.3412L8.39505 15.8204C8.30089 15.7694 8.26591 15.6517 8.31693 15.5575C8.32089 15.5502 8.32531 15.5432 8.33017 15.5364C8.40288 15.4356 8.54112 15.4082 8.64686 15.4735L9.56628 16.0414C9.64502 16.09 9.66942 16.1933 9.62078 16.272C9.55679 16.3634 9.4455 16.3895 9.35627 16.3412ZM14.9483 16.0897C14.8679 16.1356 14.8399 16.2379 14.891 16.3269C14.9465 16.4119 15.0568 16.4419 15.1477 16.3967L16.1265 15.9097C16.2224 15.862 16.2614 15.7456 16.2137 15.6497C16.21 15.6423 16.2059 15.6351 16.2012 15.6282C16.1321 15.5249 15.9949 15.4926 15.8869 15.5542L14.9483 16.0897ZM15.3463 18.6544C15.3731 18.5554 15.4653 18.5028 15.5545 18.5272L16.5969 18.8123C16.7168 18.8451 16.791 18.9649 16.7669 19.0868C16.7653 19.095 16.7631 19.103 16.7605 19.1109C16.7264 19.2124 16.6165 19.2671 16.515 19.233L15.4785 18.8852C15.3823 18.8529 15.3255 18.7537 15.3463 18.6544ZM14.2603 20.6796C14.2144 20.5992 14.1121 20.5712 14.0231 20.6223C13.9381 20.6778 13.9081 20.7882 13.9533 20.879L14.4403 21.8578C14.488 21.9537 14.6044 21.9928 14.7003 21.9451C14.7077 21.9414 14.7149 21.9372 14.7218 21.9326C14.8251 21.8634 14.8573 21.7262 14.7958 21.6183L14.2603 20.6796ZM11.6947 21.0778C11.7938 21.1046 11.8464 21.1968 11.8219 21.286L11.5369 22.3285C11.5041 22.4483 11.3842 22.5225 11.2623 22.4984C11.2542 22.4968 11.2461 22.4947 11.2383 22.492C11.1367 22.4579 11.082 22.348 11.1161 22.2465L11.4639 21.21C11.4962 21.1138 11.5954 21.057 11.6947 21.0778ZM9.66991 19.9912C9.7503 19.9454 9.77829 19.843 9.72717 19.754C9.67167 19.6691 9.56136 19.6391 9.4705 19.6843L8.49168 20.1712C8.3958 20.2189 8.35674 20.3353 8.40444 20.4312C8.40814 20.4387 8.41231 20.4459 8.41693 20.4528C8.48608 20.556 8.62327 20.5883 8.73123 20.5267L9.66991 19.9912ZM9.27185 17.4265C9.24507 17.5256 9.15291 17.5782 9.06365 17.5538L8.02123 17.2687C7.90135 17.2359 7.82717 17.1161 7.8513 16.9941C7.85291 16.986 7.85504 16.978 7.85768 16.9701C7.89176 16.8685 8.00168 16.8139 8.10322 16.8479L9.13966 17.1957C9.23587 17.228 9.29268 17.3272 9.27185 17.4265ZM10.3579 15.4014C10.4038 15.4818 10.5061 15.5097 10.5951 15.4586C10.6801 15.4031 10.71 15.2928 10.6648 15.202L10.1779 14.2231C10.1302 14.1273 10.0138 14.0882 9.91791 14.1359C9.91048 14.1396 9.90329 14.1438 9.89639 14.1484C9.79312 14.2175 9.76083 14.3547 9.82241 14.4627L10.3579 15.4014Z" fill="#FECA00"/>
</g>
</g>
</g>
<defs>
<clipPath id="clip0_431_6075">
<rect y="0.179688" width="48" height="36" rx="6" fill="white"/>
</clipPath>
</defs>
</svg>
