<svg width="115" height="24" viewBox="0 0 115 24" fill="none" xmlns="http://www.w3.org/2000/svg">
<g clip-path="url(#clip0_6357_21198)">
<path d="M23.2417 10.5334L21.3177 12.0235C21.1857 11.2313 21.3414 9.22557 19.3748 6.23261C17.6772 3.64906 14.0849 2.15201 12.8105 1.98853C13.2444 2.04418 14.0743 2.15829 14.4893 2.2526C15.0478 2.37954 17.8658 3.13916 19.903 5.59131C21.9402 8.04348 22.1288 10.1372 22.1665 10.2693C22.2043 10.4013 22.2797 10.4579 22.4117 10.4579C22.5438 10.4579 22.9211 10.2316 23.1285 10.2693C23.2945 10.2994 23.2731 10.4579 23.2417 10.5334Z" fill="#E6E7E9"/>
<path d="M13.6987 23.5879L12.2098 21.6628C13.0021 21.5313 15.0078 21.6885 18.002 19.724C20.5869 18.0281 22.0864 14.437 22.2508 13.1627C22.1948 13.5965 22.0802 14.4264 21.9856 14.8413C21.8582 15.3997 21.0966 18.2171 18.643 20.2526C16.1894 22.2881 14.0955 22.4752 13.9635 22.5129C13.8315 22.5505 13.7748 22.6259 13.7747 22.7579C13.7746 22.89 14.0007 23.2674 13.9628 23.4748C13.9325 23.6408 13.7741 23.6193 13.6987 23.5879Z" fill="#BCBDC0"/>
<path d="M10.2802 0.924584L11.7665 2.85157C10.9741 2.98202 8.96861 2.82225 5.97182 4.78289C3.38483 6.47535 1.88062 10.0646 1.7146 11.3387C1.77112 10.9049 1.88689 10.0752 1.98203 9.66041C2.11008 9.10215 2.87531 6.28574 5.33155 4.25345C7.78777 2.22116 9.88189 2.0367 10.014 1.99924C10.1461 1.96178 10.2029 1.88644 10.2031 1.7544C10.2034 1.62236 9.97777 1.24465 10.0159 1.03724C10.0464 0.871302 10.2048 0.892996 10.2802 0.924584Z" fill="#BCBDC0"/>
<path d="M0.618842 14.0728L2.54643 12.5873C2.67656 13.3798 2.51597 15.3851 4.47539 18.3828C6.16682 20.9705 9.75539 22.4761 11.0294 22.6427C10.5957 22.586 9.76604 22.4699 9.35126 22.3746C8.79304 22.2463 5.97699 21.4799 3.94568 19.0228C1.91439 16.5658 1.7308 14.4716 1.69339 14.3395C1.65598 14.2074 1.58066 14.1506 1.44862 14.1503C1.31658 14.15 0.938785 14.3754 0.731385 14.3372C0.565464 14.3066 0.587223 14.1482 0.618842 14.0728Z" fill="#E6E7E9"/>
<path d="M11.9319 19.3939C15.8612 19.3939 19.0466 16.2085 19.0466 12.2792C19.0466 8.34978 15.8612 5.16443 11.9319 5.16443C8.00255 5.16443 4.8172 8.34978 4.8172 12.2792C4.8172 16.2085 8.00255 19.3939 11.9319 19.3939Z" fill="#1DBF73" stroke="#1DBF73" stroke-width="0.22286"/>
<path d="M16.6478 10.3808L15.562 11.5638C15.0273 10.9803 13.7795 9.70015 12.0293 9.70015C10.2142 9.70015 8.80988 10.9534 8.33456 11.5638L7.21643 10.5753C7.71876 9.71642 9.38463 8.00187 12.0293 8.01484C14.674 8.02786 16.2103 9.59759 16.6478 10.3808Z" fill="#12141C"/>
<path d="M11.0886 9.52246V15.5994L11.9475 16.5069L12.774 15.5994V9.52246H11.0886Z" fill="#12141C"/>
<path d="M34.6702 6.42004V7.97387H31.5626V17.2967H30.0088V7.97387H26.9011V6.42004H34.6702ZM40.1086 6.42004C40.9683 6.42004 41.7012 6.72304 42.3072 7.32904C42.9132 7.93504 43.2162 8.66789 43.2162 9.52769C43.2162 10.3875 42.9132 11.1203 42.3072 11.7263C42.2606 11.773 42.214 11.817 42.1674 11.8584C42.214 11.8998 42.2606 11.9438 42.3072 11.9905C42.9132 12.5965 43.2162 13.3294 43.2162 14.1891C43.2162 15.0489 42.9132 15.7818 42.3072 16.3877C41.7012 16.9937 40.9683 17.2967 40.1086 17.2967H36.2241V6.42004H40.1086ZM37.7778 12.6353V15.743H40.1086C40.5384 15.743 40.9036 15.5928 41.204 15.2923C41.5096 14.9868 41.6624 14.619 41.6624 14.1891C41.6624 13.7593 41.5096 13.3941 41.204 13.0937C40.9036 12.7881 40.5384 12.6353 40.1086 12.6353H37.7778ZM40.1086 7.97387H37.7778V11.0815H40.1086C40.5384 11.0815 40.9036 10.9313 41.204 10.6309C41.5096 10.3253 41.6624 9.95754 41.6624 9.52769C41.6624 9.09775 41.5096 8.73261 41.204 8.43224C40.9036 8.12666 40.5384 7.97387 40.1086 7.97387ZM48.6546 6.42004C50.1567 6.42004 51.4386 6.95094 52.5003 8.01273C53.562 9.07448 54.0933 10.3564 54.0933 11.8584C54.0933 13.3604 53.562 14.6423 52.5003 15.7041C51.4386 16.7659 50.1567 17.2967 48.6546 17.2967H44.77V6.42004H48.6546ZM48.6546 15.743C49.7266 15.743 50.6407 15.3649 51.3967 14.6086C52.1584 13.8473 52.5391 12.9305 52.5391 11.8584C52.5391 10.7863 52.1584 9.87209 51.3967 9.11589C50.6407 8.35455 49.7266 7.97387 48.6546 7.97387H46.324V15.743H48.6546ZM61.0848 6.42004C62.1207 6.42004 63.4155 6.67901 64.9693 7.19693V8.75075C63.4155 8.23283 62.1207 7.97387 61.0848 7.97387C60.0129 7.97387 59.096 8.35455 58.3352 9.11589C57.5784 9.87209 57.2008 10.7863 57.2008 11.8584C57.2008 12.9305 57.5784 13.8473 58.3352 14.6086C59.096 15.3649 60.0129 15.743 61.0848 15.743C62.1207 15.743 63.4155 15.484 64.9693 14.966V16.5198C63.4155 17.0378 62.1207 17.2967 61.0848 17.2967C59.5828 17.2967 58.3013 16.7659 57.2392 15.7041C56.1775 14.6423 55.6471 13.3604 55.6471 11.8584C55.6471 10.3564 56.1775 9.07448 57.2392 8.01273C58.3013 6.95094 59.5828 6.42004 61.0848 6.42004Z" fill="black"/>
<path d="M70.5413 4.47688C70.5413 4.37645 70.4602 4.29504 70.3595 4.29504C70.2592 4.29504 70.1776 4.37645 70.1776 4.47688V20.0243C70.1776 20.1247 70.2592 20.2062 70.3595 20.2062C70.4602 20.2062 70.5413 20.1247 70.5413 20.0243V4.47688Z" fill="#E6E6E8"/>
<path d="M76.1462 8.05945V8.45012H75.3649V10.7942H74.974V8.45012H74.1926V8.05945H76.1462ZM77.9041 10.7942C77.5262 10.7942 77.2043 10.6607 76.9369 10.3937C76.6704 10.1267 76.5367 9.80444 76.5367 9.42678C76.5367 9.04917 76.6704 8.72682 76.9369 8.45988C77.2043 8.1929 77.5262 8.05945 77.9041 8.05945C78.2817 8.05945 78.6044 8.1929 78.8709 8.45988C79.1379 8.72682 79.2716 9.04917 79.2716 9.42678C79.2716 9.80444 79.1379 10.1267 78.8709 10.3937C78.6044 10.6607 78.2817 10.7942 77.9041 10.7942ZM77.9041 8.45012C77.6345 8.45012 77.404 8.54582 77.2128 8.73725C77.0225 8.9274 76.9276 9.15725 76.9276 9.42678C76.9276 9.69635 77.0225 9.92688 77.2128 10.1183C77.404 10.3084 77.6345 10.4035 77.9041 10.4035C78.1738 10.4035 78.4038 10.3084 78.5937 10.1183C78.7853 9.92688 78.8811 9.69635 78.8811 9.42678C78.8811 9.15725 78.7853 8.9274 78.5937 8.73725C78.4038 8.54582 78.1738 8.45012 77.9041 8.45012ZM80.6391 8.05945C80.8548 8.05945 81.0393 8.13562 81.1918 8.28797C81.3442 8.44036 81.4204 8.62462 81.4204 8.84079C81.4204 9.05697 81.3442 9.24123 81.1918 9.39362C81.0745 9.5108 80.9386 9.58309 80.7835 9.61042L81.4672 10.7942H81.0139L80.3382 9.62214H80.0529V10.7942H79.662V8.05945H80.6391ZM80.6391 8.45012H80.0529V9.23147H80.6391C80.7474 9.23147 80.8392 9.19371 80.9145 9.11817C80.9912 9.04132 81.0295 8.94888 81.0295 8.84079C81.0295 8.73271 80.9912 8.64089 80.9145 8.56538C80.8392 8.48854 80.7474 8.45012 80.6391 8.45012ZM83.1783 10.7942C82.8008 10.7942 82.4781 10.6607 82.2116 10.3937C81.9446 10.1267 81.8109 9.80444 81.8109 9.42678C81.8109 9.04917 81.9446 8.72682 82.2116 8.45988C82.4781 8.1929 82.8008 8.05945 83.1783 8.05945C83.5563 8.05945 83.8785 8.1929 84.1455 8.45988C84.4121 8.72682 84.5458 9.04917 84.5458 9.42678C84.5458 9.80444 84.4121 10.1267 84.1455 10.3937C83.8785 10.6607 83.5563 10.7942 83.1783 10.7942ZM83.1783 8.45012C82.9087 8.45012 82.6782 8.54582 82.487 8.73725C82.2962 8.9274 82.2013 9.15725 82.2013 9.42678C82.2013 9.69635 82.2962 9.92688 82.487 10.1183C82.6782 10.3084 82.9087 10.4035 83.1783 10.4035C83.448 10.4035 83.6775 10.3084 83.8679 10.1183C84.0595 9.92688 84.1549 9.69635 84.1549 9.42678C84.1549 9.15725 84.0595 8.9274 83.8679 8.73725C83.6775 8.54582 83.448 8.45012 83.1783 8.45012ZM85.3267 8.6728V10.7942H84.9362V8.05945H85.4149L86.6941 10.1808V8.05945H87.0851V10.7942H86.6063L85.3267 8.6728ZM89.4291 8.05945V8.45012H88.6477V10.7942H88.2573V8.45012H87.4759V8.05945H89.4291ZM91.187 10.7942C90.8095 10.7942 90.4872 10.6607 90.2202 10.3937C89.9533 10.1267 89.8195 9.80444 89.8195 9.42678C89.8195 9.04917 89.9533 8.72682 90.2202 8.45988C90.4872 8.1929 90.8095 8.05945 91.187 8.05945C91.565 8.05945 91.8872 8.1929 92.1542 8.45988C92.4207 8.72682 92.5545 9.04917 92.5545 9.42678C92.5545 9.80444 92.4207 10.1267 92.1542 10.3937C91.8872 10.6607 91.565 10.7942 91.187 10.7942ZM91.187 8.45012C90.9173 8.45012 90.6869 8.54582 90.4957 8.73725C90.3058 8.9274 90.2104 9.15725 90.2104 9.42678C90.2104 9.69635 90.3058 9.92688 90.4957 10.1183C90.6869 10.3084 90.9173 10.4035 91.187 10.4035C91.4567 10.4035 91.6867 10.3084 91.8765 10.1183C92.0682 9.92688 92.1636 9.69635 92.1636 9.42678C92.1636 9.15725 92.0682 8.9274 91.8765 8.73725C91.6867 8.54582 91.4567 8.45012 91.187 8.45012ZM94.9141 8.05945C95.1303 8.05945 95.3144 8.13562 95.4668 8.28797C95.6197 8.44036 95.6954 8.62462 95.6954 8.84079C95.6954 9.05697 95.6197 9.24123 95.4668 9.39362C95.4552 9.40534 95.4436 9.4164 95.4316 9.42678C95.4436 9.43721 95.4552 9.44831 95.4668 9.46003C95.6197 9.61238 95.6954 9.79664 95.6954 10.0128C95.6954 10.229 95.6197 10.4132 95.4668 10.5656C95.3144 10.718 95.1303 10.7942 94.9141 10.7942H93.9375V8.05945H94.9141ZM94.328 9.62214V10.4035H94.9141C95.022 10.4035 95.1138 10.3657 95.1896 10.2902C95.2662 10.2133 95.305 10.1209 95.305 10.0128C95.305 9.90473 95.2662 9.81295 95.1896 9.73736C95.1138 9.66056 95.022 9.62214 94.9141 9.62214H94.328ZM94.9141 8.45012H94.328V9.23147H94.9141C95.022 9.23147 95.1138 9.19371 95.1896 9.11817C95.2662 9.04132 95.305 8.94888 95.305 8.84079C95.305 8.73271 95.2662 8.64089 95.1896 8.56538C95.1138 8.48854 95.022 8.45012 94.9141 8.45012ZM96.0863 9.62214V8.05945H96.4768V9.62214C96.4768 9.83831 96.5526 10.0226 96.7055 10.1749C96.8579 10.3273 97.042 10.4035 97.2581 10.4035C97.4743 10.4035 97.6588 10.3273 97.8113 10.1749C97.9633 10.0226 98.0395 9.83831 98.0395 9.62214V8.05945H98.4304V9.62214C98.4304 9.9464 98.3158 10.2231 98.0867 10.4523C97.8585 10.6802 97.5826 10.7942 97.2581 10.7942C96.9337 10.7942 96.6573 10.6802 96.4278 10.4523C96.2 10.2231 96.0863 9.9464 96.0863 9.62214ZM99.6022 8.05945C99.7978 8.05945 100.058 8.14409 100.384 8.31337V8.70405C100.058 8.53476 99.7978 8.45012 99.6022 8.45012C99.4939 8.45012 99.4016 8.48854 99.3249 8.56538C99.2496 8.64089 99.2117 8.73271 99.2117 8.84079C99.2117 8.98405 99.4069 9.14032 99.7978 9.3096C100.188 9.47889 100.384 9.71329 100.384 10.0128C100.384 10.229 100.307 10.4132 100.155 10.5656C100.003 10.718 99.8183 10.7942 99.6022 10.7942C99.4069 10.7942 99.1462 10.7095 98.8208 10.5402V10.1496C99.1462 10.3188 99.4069 10.4035 99.6022 10.4035C99.7105 10.4035 99.8023 10.3657 99.8776 10.2902C99.9547 10.2133 99.9926 10.1209 99.9926 10.0128C99.9926 9.86956 99.7978 9.71329 99.4069 9.544C99.0161 9.37468 98.8208 9.14032 98.8208 8.84079C98.8208 8.62462 98.897 8.44036 99.0495 8.28797C99.2019 8.13562 99.386 8.05945 99.6022 8.05945ZM101.165 10.7942H100.774V8.05945H101.165V10.7942ZM101.946 8.6728V10.7942H101.556V8.05945H102.034L103.314 10.1808V8.05945H103.704V10.7942H103.226L101.946 8.6728ZM105.658 8.05945V8.45012H104.485V9.23147H105.658V9.62214H104.485V10.4035H105.658V10.7942H104.095V8.05945H105.658ZM106.83 8.05945C107.025 8.05945 107.285 8.14409 107.611 8.31337V8.70405C107.285 8.53476 107.025 8.45012 106.83 8.45012C106.722 8.45012 106.629 8.48854 106.552 8.56538C106.477 8.64089 106.439 8.73271 106.439 8.84079C106.439 8.98405 106.634 9.14032 107.025 9.3096C107.416 9.47889 107.611 9.71329 107.611 10.0128C107.611 10.229 107.535 10.4132 107.382 10.5656C107.23 10.718 107.046 10.7942 106.83 10.7942C106.634 10.7942 106.374 10.7095 106.049 10.5402V10.1496C106.374 10.3188 106.634 10.4035 106.83 10.4035C106.938 10.4035 107.03 10.3657 107.105 10.2902C107.182 10.2133 107.22 10.1209 107.22 10.0128C107.22 9.86956 107.025 9.71329 106.634 9.544C106.243 9.37468 106.049 9.14032 106.049 8.84079C106.049 8.62462 106.124 8.44036 106.277 8.28797C106.429 8.13562 106.614 8.05945 106.83 8.05945ZM108.783 8.05945C108.978 8.05945 109.239 8.14409 109.564 8.31337V8.70405C109.239 8.53476 108.978 8.45012 108.783 8.45012C108.675 8.45012 108.583 8.48854 108.506 8.56538C108.43 8.64089 108.393 8.73271 108.393 8.84079C108.393 8.98405 108.588 9.14032 108.978 9.3096C109.369 9.47889 109.564 9.71329 109.564 10.0128C109.564 10.229 109.488 10.4132 109.336 10.5656C109.183 10.718 108.999 10.7942 108.783 10.7942C108.588 10.7942 108.328 10.7095 108.001 10.5402V10.1496C108.328 10.3188 108.588 10.4035 108.783 10.4035C108.891 10.4035 108.983 10.3657 109.059 10.2902C109.135 10.2133 109.174 10.1209 109.174 10.0128C109.174 9.86956 108.978 9.71329 108.588 9.544C108.197 9.37468 108.001 9.14032 108.001 8.84079C108.001 8.62462 108.078 8.44036 108.23 8.28797C108.382 8.13562 108.567 8.05945 108.783 8.05945ZM75.1696 13.651C75.5472 13.651 75.8694 13.7845 76.1364 14.0515C76.4034 14.3185 76.5367 14.6408 76.5367 15.0184C76.5367 15.396 76.4034 15.7184 76.1364 15.9854C75.8694 16.2523 75.5472 16.3857 75.1696 16.3857H74.1926V13.651H75.1696ZM75.1696 15.9951C75.4393 15.9951 75.6688 15.9 75.8587 15.7099C76.0504 15.5185 76.1462 15.288 76.1462 15.0184C76.1462 14.7489 76.0504 14.519 75.8587 14.3288C75.6688 14.1374 75.4393 14.0418 75.1696 14.0418H74.5835V15.9951H75.1696ZM78.4902 13.651V14.0418H77.318V14.8231H78.4902V15.2137H77.318V15.9951H78.4902V16.3857H76.9276V13.651H78.4902ZM80.1546 16.3857H79.7561L78.7621 13.651H79.178L79.9553 15.788L80.7327 13.651H81.1485L80.1546 16.3857ZM82.9831 13.651V14.0418H81.8109V14.8231H82.9831V15.2137H81.8109V15.9951H82.9831V16.3857H81.4204V13.651H82.9831ZM83.7644 15.9951H85.1319V16.3857H83.3735V13.651H83.7644V15.9951ZM86.8898 16.3857C86.5119 16.3857 86.1896 16.2523 85.9226 15.9854C85.6561 15.7184 85.5224 15.396 85.5224 15.0184C85.5224 14.6408 85.6561 14.3185 85.9226 14.0515C86.1896 13.7845 86.5119 13.651 86.8898 13.651C87.2673 13.651 87.59 13.7845 87.8566 14.0515C88.1236 14.3185 88.2573 14.6408 88.2573 15.0184C88.2573 15.396 88.1236 15.7184 87.8566 15.9854C87.59 16.2523 87.2673 16.3857 86.8898 16.3857ZM86.8898 14.0418C86.6202 14.0418 86.3897 14.1374 86.1985 14.3288C86.0082 14.519 85.9128 14.7489 85.9128 15.0184C85.9128 15.288 86.0082 15.5185 86.1985 15.7099C86.3897 15.9 86.6202 15.9951 86.8898 15.9951C87.1595 15.9951 87.389 15.9 87.5794 15.7099C87.7706 15.5185 87.8664 15.288 87.8664 15.0184C87.8664 14.7489 87.7706 14.519 87.5794 14.3288C87.389 14.1374 87.1595 14.0418 86.8898 14.0418ZM89.6243 13.651C89.8405 13.651 90.0246 13.7273 90.177 13.8796C90.3299 14.0319 90.4057 14.2162 90.4057 14.4324C90.4057 14.6486 90.3299 14.8328 90.177 14.9852C90.0246 15.1376 89.8405 15.2137 89.6243 15.2137H89.0382V16.3857H88.6477V13.651H89.6243ZM89.6243 14.0418H89.0382V14.8231H89.6243C89.7322 14.8231 89.824 14.7853 89.8998 14.7098C89.9764 14.633 90.0152 14.5405 90.0152 14.4324C90.0152 14.3243 89.9764 14.2325 89.8998 14.157C89.824 14.0801 89.7322 14.0418 89.6243 14.0418ZM91.187 14.2644V16.3857H90.7966V13.651H91.2748L92.1636 15.1258L93.0523 13.651H93.531V16.3857H93.1406V14.2644L92.1636 15.8837L91.187 14.2644ZM95.4846 13.651V14.0418H94.3124V14.8231H95.4846V15.2137H94.3124V15.9951H95.4846V16.3857H93.9219V13.651H95.4846ZM96.266 14.2644V16.3857H95.8751V13.651H96.3538L97.6334 15.7724V13.651H98.0239V16.3857H97.5452L96.266 14.2644ZM100.368 13.651V14.0418H99.5866V16.3857H99.1957V14.0418H98.4143V13.651H100.368ZM103.118 13.651C103.379 13.651 103.704 13.7162 104.095 13.8464V14.2371C103.704 14.1068 103.379 14.0418 103.118 14.0418C102.848 14.0418 102.618 14.1374 102.427 14.3288C102.237 14.519 102.142 14.7489 102.142 15.0184C102.142 15.288 102.237 15.5185 102.427 15.7099C102.618 15.9 102.848 15.9951 103.118 15.9951C103.379 15.9951 103.704 15.93 104.095 15.7998V16.1904C103.704 16.3207 103.379 16.3857 103.118 16.3857C102.741 16.3857 102.419 16.2523 102.151 15.9854C101.884 15.7184 101.751 15.396 101.751 15.0184C101.751 14.6408 101.884 14.3185 102.151 14.0515C102.419 13.7845 102.741 13.651 103.118 13.651ZM106.049 13.651V14.0418H104.876V14.8231H106.049V15.2137H104.876V15.9951H106.049V16.3857H104.485V13.651H106.049ZM106.83 14.2644V16.3857H106.439V13.651H106.918L108.197 15.7724V13.651H108.588V16.3857H108.109L106.83 14.2644ZM110.932 13.651V14.0418H110.151V16.3857H109.76V14.0418H108.978V13.651H110.932ZM112.299 13.651C112.515 13.651 112.699 13.7273 112.852 13.8796C113.005 14.0319 113.08 14.2162 113.08 14.4324C113.08 14.6486 113.005 14.8328 112.852 14.9852C112.735 15.1024 112.598 15.1747 112.444 15.202L113.127 16.3857H112.674L111.999 15.2137H111.713V16.3857H111.322V13.651H112.299ZM112.299 14.0418H111.713V14.8231H112.299C112.407 14.8231 112.499 14.7853 112.574 14.7098C112.651 14.633 112.69 14.5405 112.69 14.4324C112.69 14.3243 112.651 14.2325 112.574 14.157C112.499 14.0801 112.407 14.0418 112.299 14.0418ZM115.034 13.651V14.0418H113.862V14.8231H115.034V15.2137H113.862V15.9951H115.034V16.3857H113.471V13.651H115.034Z" fill="#4C5059"/>
</g>
<defs>
<clipPath id="clip0_6357_21198">
<rect width="114.55" height="22.7317" fill="white" transform="translate(0.596802 0.901367)"/>
</clipPath>
</defs>
</svg>
